HIERARCHY
ROOT root
{
	OFFSET	0	13.1	24.9
	CHANNELS 6  Xposition Yposition Zposition Xrotation Yrotation Zrotation
	JOINT spine_1
	{
		OFFSET	0	9.99999	0
		CHANNELS 3  Xrotation Yrotation Zrotation
		JOINT spine_2
		{
			OFFSET	0	112	-10
			CHANNELS 3  Xrotation Yrotation Zrotation
			JOINT spine_3
			{
				OFFSET	0	206.5	19.3
				CHANNELS 3  Xrotation Yrotation Zrotation
				JOINT spine_4
				{
					OFFSET	0	110.4	14.6
					CHANNELS 3  Xrotation Yrotation Zrotation
					JOINT neck_1
					{
						OFFSET	0	71.8	-50.3
						CHANNELS 3  Xrotation Yrotation Zrotation
						JOINT neck_2
						{
							OFFSET	0	86.2	-25.8
							CHANNELS 3  Xrotation Yrotation Zrotation
							JOINT head_ee
							{
								OFFSET	0	179.8	-8.7
								CHANNELS 3  Xrotation Yrotation Zrotation
								End Site
								{
									OFFSET	1	0	0
								}
							}
						}
					}
					JOINT left_clavicle
					{
						OFFSET	-43.2	22.4	-70.8
						CHANNELS 3  Xrotation Yrotation Zrotation
						JOINT left_shoulder
						{
							OFFSET	-93.9	-5.79999	48.7
							CHANNELS 3  Xrotation Yrotation Zrotation
							JOINT left_elbow
							{
								OFFSET	-291.4	-30.8	15.2
								CHANNELS 3  Xrotation Yrotation Zrotation
								JOINT left_lowarm_twist
								{
									OFFSET	-110.7	-3.89999	13.6
									CHANNELS 3  Xrotation Yrotation Zrotation
									JOINT left_hand
									{
										OFFSET	-110.7	-3.89999	13.6
										CHANNELS 3  Xrotation Yrotation Zrotation
										JOINT left_ee
										{
											OFFSET	-80.8	-5.10001	12.1
											CHANNELS 3  Xrotation Yrotation Zrotation
											End Site
											{
												OFFSET	1	0	0
											}
										}
									}
								}
							}
						}
					}
					JOINT right_clavicle
					{
						OFFSET	43.2	22.4	-70.8
						CHANNELS 3  Xrotation Yrotation Zrotation
						JOINT right_shoulder
						{
							OFFSET	93.9	-5.79999	48.7
							CHANNELS 3  Xrotation Yrotation Zrotation
							JOINT right_elbow
							{
								OFFSET	291.4	-30.8	15.2
								CHANNELS 3  Xrotation Yrotation Zrotation
								JOINT right_lowarm_twist
								{
									OFFSET	110.7	-3.89999	13.6
									CHANNELS 3  Xrotation Yrotation Zrotation
									JOINT right_hand
									{
										OFFSET	110.7	-3.89999	13.6
										CHANNELS 3  Xrotation Yrotation Zrotation
										JOINT right_ee
										{
											OFFSET	80.8	-5.10001	12.1
											CHANNELS 3  Xrotation Yrotation Zrotation
											End Site
											{
												OFFSET	1	0	0
											}
										}
									}
								}
							}
						}
					}
				}
			}
		}
	}
	JOINT left_hip
	{
		OFFSET	-82.8	-127.5	0.300001
		CHANNELS 3  Xrotation Yrotation Zrotation
		JOINT left_knee
		{
			OFFSET	-28.2	-396.7	2.2
			CHANNELS 3  Xrotation Yrotation Zrotation
			JOINT left_ankle
			{
				OFFSET	-11.7	-411.3	35.4
				CHANNELS 3  Xrotation Yrotation Zrotation
				JOINT left_toes
				{
					OFFSET	0	-60	-88.6
					CHANNELS 3  Xrotation Yrotation Zrotation
					JOINT left_foot_ee
					{
						OFFSET	-22.5	-16.5	-42.2
						CHANNELS 3  Xrotation Yrotation Zrotation
						End Site
						{
							OFFSET	1	0	0
						}
					}
				}
			}
		}
	}
	JOINT right_hip
	{
		OFFSET	82.8	-127.5	0.300001
		CHANNELS 3  Xrotation Yrotation Zrotation
		JOINT right_knee
		{
			OFFSET	28.2	-396.7	2.2
			CHANNELS 3  Xrotation Yrotation Zrotation
			JOINT right_ankle
			{
				OFFSET	11.7	-411.3	35.4
				CHANNELS 3  Xrotation Yrotation Zrotation
				JOINT right_toes
				{
					OFFSET	0	-60	-88.6
					CHANNELS 3  Xrotation Yrotation Zrotation
					JOINT right_foot_ee
					{
						OFFSET	22.5	-16.5	-42.2
						CHANNELS 3  Xrotation Yrotation Zrotation
						End Site
						{
							OFFSET	1	0	0
						}
					}
				}
			}
		}
	}
}
MOTION
Frames: 8
Frame Time: 0.02
2926.99 738.119 -1333.39 5.70745 52.0294 -6.92969 0.15242 0.297497 2.04471 0.15473 0.166812 2.05949 0.16184 -0.264059 2.0493 0.155984 0.0628317 2.06528 -15.3866 12.5243 5.80499 -15.6835 20.5973 9.77047 -0.0 0.0 -0.0 6.89478 16.6448 12.8399 -5.84359 -22.2999 41.4865 1.14334 -29.5254 0.301297 -48.144 -3.85588 4.58233 -3.13998 2.16358 -20.3711 -0.0 0.0 -0.0 12.7821 27.5128 -24.9896 -18.2148 12.2824 -63.2222 0.740523 20.1447 -0.13154 79.1327 3.73891 8.56012 -2.07052 -10.1172 9.10277 0.0 0.0 0.0 -9.24758 17.9155 10.3201 6.78417 -0.338192 -0.985148 24.84 -0.549797 -3.33849 -11.1824 0.0 0.0 -0.0 0.0 -0.0 16.1344 10.8104 5.04921 -43.2879 0.689081 -6.45231 27.4497 0.422187 3.63504 -8.01127 0.0 0.0 0.0 0.0 0.0 
2919.0 739.478 -1332.59 5.48573 53.0733 -6.75382 0.0382677 0.249784 2.11757 0.0407553 0.114563 2.12917 0.0462233 -0.333921 2.10595 0.0400337 0.00278595 2.13224 -16.0692 12.5783 5.58479 -16.4213 20.9281 9.72683 -0.0 0.0 -0.0 6.93217 15.5947 12.9692 -5.04934 -22.5602 40.9996 1.29338 -32.6464 0.378795 -48.303 -3.87424 4.59122 -3.01769 1.82959 -19.6764 -0.0 0.0 -0.0 12.833 27.2337 -25.142 -19.5291 11.3054 -63.1853 0.61707 16.9974 -0.0922082 79.3087 3.75908 8.57032 -2.27171 -11.0436 9.94895 0.0 0.0 0.0 -10.4362 19.2171 11.3915 9.03118 -0.475699 -1.30197 22.5722 0.653059 -3.06245 -11.5813 0.0 0.0 -0.0 0.0 -0.0 16.4351 12.0994 3.71882 -40.9221 0.526469 -6.12687 24.8996 -2.81169 3.32654 -9.82955 0.0 0.0 0.0 0.0 0.0 
2914.92 742.334 -1328.83 5.0297 53.2429 -5.89419 -0.00147005 0.170562 1.84209 0.000416389 0.0530195 1.84921 0.00302031 -0.336832 1.81905 -0.00159493 -0.0453708 1.84941 -15.3824 13.0253 5.98705 -15.7081 21.4529 10.1212 -0.0 0.0 -0.0 6.66637 15.3846 12.5429 -4.2069 -22.9798 41.7839 1.37472 -34.2529 0.423634 -48.3206 -3.87629 4.5922 -3.08381 1.57336 -20.2766 -0.0 0.0 -0.0 12.7492 27.2426 -24.9482 -19.7573 10.122 -62.8941 0.582797 16.1036 -0.0824448 79.0709 3.73185 8.55653 -2.32878 -9.86428 10.9096 0.0 0.0 0.0 -10.4787 18.2148 11.7546 7.46638 -0.378621 -1.08189 25.0223 -0.166043 -3.35693 -11.2771 0.0 0.0 -0.0 0.0 -0.0 21.0845 7.65757 -0.37434 -32.2323 0.0478911 -4.88165 27.1388 1.9488 3.61306 -11.718 0.0 0.0 0.0 0.0 0.0 
2911.14 741.252 -1328.24 2.71859 53.4692 -2.73958 0.34167 0.231669 1.54698 0.342992 0.132773 1.55858 0.347178 -0.188392 1.55284 0.343818 0.0591829 1.5631 -14.1281 13.5349 5.26324 -14.46 22.6662 9.36887 -0.0 0.0 -0.0 6.89227 14.6058 12.9629 -3.65217 -23.3323 41.2317 1.52067 -36.9881 0.50866 -48.1393 -3.85533 4.58206 -3.03888 1.89725 -19.7916 -0.0 0.0 -0.0 12.652 26.9625 -24.7599 -20.2683 9.15766 -63.2697 0.514398 14.2959 -0.0645094 79.2929 3.75726 8.56941 -2.40069 -10.1957 11.2131 0.0 0.0 0.0 -8.28644 17.9469 10.0061 7.82078 -0.400079 -1.13196 24.1131 0.590577 -3.24587 -11.6702 0.0 0.0 -0.0 0.0 -0.0 22.7331 6.3174 -2.38383 -27.5111 -0.13132 -4.17947 26.653 2.46786 3.56314 -13.9797 0.0 0.0 0.0 0.0 0.0 
2906.2 740.509 -1329.57 1.74938 53.6734 -1.52712 0.400453 0.267012 1.39893 0.401524 0.177463 1.41308 0.406388 -0.113436 1.41966 0.403593 0.112173 1.41976 -14.8092 13.555 5.49864 -15.1727 22.6683 9.74209 -0.0 0.0 -0.0 6.74189 13.9949 12.7437 -2.91054 -23.3902 41.0309 1.67162 -39.624 0.602254 -48.2701 -3.87045 4.58938 -3.05201 1.48884 -20.094 -0.0 0.0 -0.0 12.3956 26.4468 -24.2341 -20.6165 8.53913 -63.681 0.507537 14.1129 -0.0628258 79.2459 3.75188 8.56669 -2.48545 -10.7121 11.5044 0.0 0.0 0.0 -7.39778 18.4143 9.08096 6.39129 -0.315435 -0.929221 23.9893 1.1299 -3.22819 -11.5974 0.0 0.0 -0.0 0.0 -0.0 23.8177 5.18965 -4.19364 -21.8185 -0.269601 -3.31716 27.0467 2.92302 3.61223 -15.6755 0.0 0.0 0.0 0.0 0.0 
2900.61 736.641 -1330.64 0.62754 53.8244 0.143986 0.528944 0.291562 1.21566 0.529741 0.213622 1.23175 0.534701 -0.0383642 1.24955 0.532558 0.159444 1.23993 -13.1638 14.3236 3.66251 -13.5691 25.0127 7.93273 -0.0 0.0 -0.0 6.93965 13.7417 13.0922 -1.98093 -23.5895 40.6624 1.75053 -40.9269 0.653267 -47.6718 -3.80147 4.55563 -3.23624 4.25404 -19.9546 -0.0 0.0 -0.0 11.9863 26.0385 -23.3454 -20.9538 8.18252 -64.7815 0.499341 13.8939 -0.0608425 78.9673 3.72001 8.55049 -2.78754 -13.6411 11.9347 0.0 0.0 0.0 -8.02999 20.0621 9.14272 7.02997 -0.352625 -1.02006 25.9714 2.87184 -3.44957 -11.0884 0.0 0.0 -0.0 0.0 -0.0 26.4302 3.71932 -6.5591 -14.8177 -0.321361 -2.24492 23.6934 5.53917 3.25243 -15.7709 0.0 0.0 0.0 0.0 0.0 
2887.64 740.057 -1331.93 -0.255941 53.4969 0.723563 0.64905 0.335954 1.31823 0.649982 0.251399 1.33693 0.656257 -0.0196089 1.36022 0.653728 0.195438 1.34625 -11.7854 14.3241 2.92402 -12.1151 25.29 6.9124 -0.0 0.0 -0.0 6.94427 15.9218 12.9682 -0.0232283 -23.1871 41.487 1.83346 -42.243 0.708316 -50.1989 -4.09511 4.69326 -2.69978 3.18879 -16.7624 -0.0 0.0 -0.0 11.8243 23.7967 -23.2116 -21.2264 7.82958 -64.8063 0.417429 11.6833 -0.0427075 78.4583 3.66198 8.52049 -3.27597 -13.686 15.0638 0.0 0.0 0.0 -7.15935 21.0521 8.87437 3.50206 -0.159976 -0.51345 24.5356 0.967911 -3.2931 -11.1183 0.0 0.0 -0.0 0.0 -0.0 25.6202 3.13919 -7.00648 -8.34959 -0.252672 -1.25537 20.8563 3.92848 2.88891 -16.171 0.0 0.0 0.0 0.0 0.0 
2875.3 739.985 -1334.32 -0.0653436 54.4364 0.125201 0.53836 0.18986 1.47829 0.539571 0.0954184 1.48737 0.542487 -0.20539 1.47621 0.539447 0.0303008 1.49012 -12.0316 14.8214 2.93807 -12.4112 26.2614 7.14132 -0.0 0.0 -0.0 6.97362 17.1177 12.935 1.88689 -22.0296 42.471 2.04741 -45.3993 0.85651 -51.4108 -4.238 4.75465 -2.52803 3.9534 -15.1976 -0.0 0.0 -0.0 11.4347 21.249 -22.5477 -22.5149 7.37458 -64.7329 0.568386 15.7254 -0.0784934 78.5812 3.67596 8.52778 -3.74547 -17.0404 16.1448 0.0 0.0 0.0 -8.20255 22.2996 9.49755 2.41527 -0.106969 -0.355148 25.291 1.06411 -3.3802 -11.9533 0.0 0.0 -0.0 0.0 -0.0 25.5548 2.79955 -8.4457 -1.16719 -0.0462967 -0.173135 16.0035 4.49225 2.27261 -15.2001 0.0 0.0 0.0 0.0 0.0 
